<svg xmlns="http://www.w3.org/2000/svg" width="390" height="363" viewBox="0 0 390 363" fill="none">
  <path d="M214.821 362.622H97.573C68.9093 362.622 42.2854 347.804 27.1936 323.45L8.30942 292.976C-7.13594 268.052 2.13002 235.255 28.3383 222.084C52.0418 210.172 62.2936 181.82 51.6856 157.517L44.1344 140.217C32.9728 114.644 38.105 84.8879 57.1891 64.5259L90.3137 29.1833C125.348 -8.19723 184.395 -9.16123 220.633 27.0559L261.976 68.3763C267.347 73.7434 275.696 74.7357 282.176 70.7768C292.58 64.4211 306.043 71.1972 307.126 83.3343L312.257 140.79C313.385 153.431 319.111 165.208 329.26 172.834C349.281 187.88 376.899 206.414 381.95 218.748C417.559 305.669 308.805 362.622 214.821 362.622Z" fill="#E7E8FF"/>
  <path d="M27.4947 296.428C59.8896 312.499 73.3598 346.79 75.6211 362.167H63.4765C36.2733 343.228 26.2844 313.711 24.5184 298.473C24.3269 296.82 26.0049 295.689 27.4947 296.428Z" fill="#032068"/>
  <path d="M36.2088 247.772C72.5852 265.423 83.2652 330.698 84.0288 361.7H67.6804C29.938 307.222 28.7807 265.383 33.3353 249.032C33.6812 247.79 35.0491 247.209 36.2088 247.772Z" fill="white"/>
  <path fill-rule="evenodd" clip-rule="evenodd" d="M34.4221 249.335C34.57 248.803 35.1596 248.517 35.7164 248.787C53.4738 257.403 65.1119 277.751 72.4012 300.079C79.4935 321.805 82.3781 345.13 82.8683 360.571H68.272C30.9912 306.523 29.9953 265.226 34.4221 249.335ZM36.7012 246.757C34.9386 245.902 32.7923 246.777 32.2486 248.729C27.5796 265.491 28.8787 307.674 66.7532 362.342L67.0896 362.827H85.1849L85.1565 361.672C84.7726 346.086 81.8993 321.905 74.546 299.379C67.2102 276.908 55.3201 255.792 36.7012 246.757Z" fill="#032068"/>
  <path fill-rule="evenodd" clip-rule="evenodd" d="M38.1296 261.198L53.1024 301.625L44.3273 297.615L43.3896 299.667L54.2083 304.611L67.7836 341.264L60.1566 338.23L59.3227 340.327L68.8382 344.111L75.4972 362.091L77.613 361.307L64.1064 324.839L71.045 309.379L68.9867 308.456L62.9882 321.82L48.3357 282.259L51.9436 270.479L49.7862 269.818L47.0442 278.771L40.2454 260.415L38.1296 261.198Z" fill="#032068"/>
  <path d="M310.434 40.5623L314.715 36.1342C315.478 35.3456 316.803 35.9986 316.643 37.0837L315.761 43.0331C315.707 43.393 315.83 43.7566 316.092 44.0095L320.825 48.5839C321.586 49.3206 321.004 50.6065 319.947 50.5192L313.317 49.9717C312.996 49.945 312.677 50.058 312.444 50.282L307.17 55.3429C306.387 56.0946 305.099 55.4147 305.276 54.344L306.401 47.5844C306.456 47.255 306.362 46.9183 306.144 46.665L301.292 41.0056C300.578 40.1732 301.352 38.9149 302.417 39.1756L309.356 40.874C309.745 40.9694 310.156 40.8507 310.434 40.5623ZM337.153 111.715L339.016 111.018C340.043 110.633 340.959 111.792 340.348 112.703L339.272 114.306C339.069 114.608 339.025 114.989 339.152 115.331L339.998 117.588C340.37 118.581 339.291 119.492 338.374 118.959L336.228 117.711C335.949 117.549 335.612 117.515 335.306 117.617L332.67 118.492C331.639 118.835 330.769 117.667 331.388 116.777L332.818 114.727C333.009 114.454 333.069 114.109 332.982 113.787L332.245 111.073C331.958 110.015 333.198 109.211 334.048 109.904L336.045 111.533C336.355 111.786 336.778 111.856 337.153 111.715ZM36.4251 160.607L33.2619 164.739C33.0694 164.99 32.7555 165.11 32.448 165.052L28.5383 164.305C27.6972 164.144 27.1897 165.223 27.8389 165.791L30.9116 168.483C31.136 168.68 31.2419 168.982 31.1903 169.279L30.4195 173.717C30.2746 174.552 31.2819 175.069 31.8522 174.452L35.0085 171.041C35.1939 170.842 35.4625 170.744 35.7301 170.782L39.383 171.289C40.206 171.403 40.672 170.358 40.0463 169.8L37.3297 167.382C37.1114 167.188 37.0073 166.892 37.054 166.601L37.9107 161.269C38.0507 160.397 36.9583 159.909 36.4251 160.607Z" fill="#ED3237"/>
  <path d="M74.1376 46.7797C74.1376 39.3033 80.1983 33.2426 87.6746 33.2426H241.681C249.156 33.2426 255.217 39.3033 255.217 46.7797V347.912C255.217 355.389 249.156 361.45 241.681 361.45H87.6746C80.1984 361.45 74.1376 355.389 74.1376 347.912V46.7797Z" fill="white"/>
  <path fill-rule="evenodd" clip-rule="evenodd" d="M73.0097 46.7797C73.0097 38.6804 79.5754 32.1147 87.6746 32.1147H241.681C249.78 32.1147 256.345 38.6804 256.345 46.7797V347.912C256.345 356.012 249.78 362.577 241.681 362.577H87.6746C79.5754 362.577 73.0097 356.012 73.0097 347.912V46.7797ZM87.6746 34.3708C80.8214 34.3708 75.2658 39.9265 75.2658 46.7797V347.912C75.2658 354.766 80.8214 360.321 87.6746 360.321H241.681C248.534 360.321 254.089 354.766 254.089 347.912V46.7797C254.089 39.9265 248.534 34.3708 241.681 34.3708H87.6746Z" fill="#032068"/>
  <path d="M128.672 44.2462L122.803 33.2422H206.552L199.652 44.7414C197.614 48.1393 193.942 50.2183 189.979 50.2183H138.625C134.46 50.2183 130.632 47.9221 128.672 44.2462Z" fill="#032068"/>
  <path d="M252.997 40.0327H75.2042C81.0892 34.1476 86.7103 33.0536 88.7852 33.2422H239.416C246.659 33.2422 251.487 37.7693 252.997 40.0327ZM252.911 355.014H76.4445C82.5604 360.994 86.0952 362.106 88.2515 361.915H241.104C248.631 361.915 251.343 357.314 252.911 355.014Z" fill="#032068"/>
  <path d="M94.8971 71.5773C94.8971 69.7082 96.4122 68.193 98.2813 68.193H156.101C157.97 68.193 159.486 69.7082 159.486 71.5773V71.729C159.486 73.5981 157.97 75.1133 156.101 75.1133H98.2813C96.4122 75.1133 94.8971 73.5981 94.8971 71.729V71.5773Z" fill="#ED3237"/>
  <path fill-rule="evenodd" clip-rule="evenodd" d="M93.315 94.3563C93.315 91.8642 95.3353 89.844 97.8274 89.844H232.068C234.562 89.844 236.581 91.8642 236.581 94.3563V217.317C236.581 219.809 234.562 221.829 232.068 221.829H97.8274C95.3353 221.829 93.315 219.809 93.315 217.317V94.3563ZM97.8274 92.1001C96.5813 92.1001 95.5713 93.1103 95.5713 94.3563V217.317C95.5713 218.564 96.5813 219.573 97.8274 219.573H232.068C233.315 219.573 234.324 218.564 234.324 217.317V94.3563C234.324 93.1103 233.315 92.1001 232.068 92.1001H97.8274Z" fill="#E7E8FF"/>
  <path d="M129.413 308.474C129.413 306.605 130.929 305.09 132.798 305.09H197.098C198.967 305.09 200.483 306.605 200.483 308.474V326.524C200.483 328.392 198.967 329.907 197.098 329.907H132.798C130.929 329.907 129.413 328.392 129.413 326.524V308.474Z" fill="#ED3237"/>
  <path fill-rule="evenodd" clip-rule="evenodd" d="M242.504 49.3697V58.5967H240.248V49.3697H242.504ZM236.739 50.5231V58.5967H234.483V50.5231H236.739ZM230.972 52.8298V58.5967H228.715V52.8298H230.972ZM225.204 55.1366V58.5967H222.948V55.1366H225.204Z" fill="#032068"/>
  <path d="M94.443 157.528H236.581V169.937H94.443V157.528Z" fill="#E7E8FF"/>
  <path d="M126.03 90.9722H138.438V159.786H126.03V90.9722ZM188.074 164.298H200.483V220.702H188.074V164.298Z" fill="#E7E8FF"/>
  <path fill-rule="evenodd" clip-rule="evenodd" d="M166.643 167.27C170.636 167.27 188.112 136.438 188.112 124.677C188.112 112.915 178.5 103.381 166.643 103.381C154.784 103.381 145.172 112.915 145.172 124.677C145.172 136.438 161.15 167.27 166.643 167.27ZM166.643 135.849C172.716 135.849 177.639 130.925 177.639 124.851C177.639 118.778 172.716 113.855 166.643 113.855C160.569 113.855 155.645 118.778 155.645 124.851C155.645 130.925 160.569 135.849 166.643 135.849Z" fill="#ED3237"/>
  <path d="M206.196 285.211C206.196 289.959 202.621 293.81 198.212 293.81C193.802 293.81 190.227 289.959 190.227 285.211C190.227 280.462 193.802 276.612 198.212 276.612C202.621 276.612 206.196 280.462 206.196 285.211Z" fill="white"/>
  <path d="M303.34 189.549L308.823 202.915C308.823 206.966 306.509 215.065 297.249 215.065C287.988 215.065 282.424 209.8 280.8 207.168V196.84C277.753 196.84 274.098 192.587 272.271 189.549C270.443 186.512 261.914 168.286 271.662 156.743C281.409 145.201 294.811 153.099 303.34 164.034C310.164 172.781 306.183 184.689 303.34 189.549Z" fill="#EFCB96"/>
  <path d="M378.883 361.476H249.73C238.765 346.896 231.454 238.758 238.154 227.215C248.736 208.99 269.834 204.737 279.581 202.308C281.205 205.345 285.917 208.99 294.202 208.99C302.487 208.99 307.808 202.915 309.432 199.877C321.21 202.105 347.69 209.112 359.388 219.318C374.009 232.075 384.975 289.79 389.24 326.241C392.651 355.401 383.757 361.881 378.883 361.476Z" fill="#ED3237"/>
  <path d="M330.755 350.541C342.939 345.681 357.763 319.76 363.652 307.407C358.982 325.025 340.502 358.582 326.491 356.009C307.97 352.606 279.784 313.685 268.007 294.65C283.845 315.304 318.57 355.401 330.755 350.541Z" fill="#032068"/>
  <path d="M308.214 342.035C321.372 335.231 338.471 337.175 345.376 338.998C342.735 344.061 335.629 353.943 328.318 352.97C321.008 351.998 311.87 345.276 308.214 342.035ZM319.789 284.322L326.489 263.666L316.134 281.284C307.848 278.855 295.421 272.78 280.8 269.741C294.202 274.602 319.383 288.776 333.8 297.079L319.789 284.322Z" fill="#032068"/>
  <path d="M272.879 265.488C273.367 266.461 275.926 269.944 277.145 271.563L268.615 286.144C267.893 285.132 265.841 282.743 263.403 281.284C260.358 279.462 250.948 277.64 250.948 270.349C250.948 264.516 255.009 259.818 257.041 258.199C253.792 254.756 246.684 249.086 246.684 247.264C246.684 245.905 247.293 243.618 249.73 244.225C252.167 244.834 260.696 254.553 262.524 255.161C264.351 255.769 269.224 255.161 271.052 256.377C272.879 257.591 272.271 264.274 272.879 265.488Z" fill="#EFCB96"/>
  <path d="M294.811 193.802C290.425 197.205 283.643 197.245 280.8 196.84L280.8 201.092C286.648 201.092 292.577 196.233 294.811 193.802ZM299.685 184.689C300.172 186.633 303.543 192.385 305.168 195.017C310.042 193.195 311.261 167.071 308.214 159.174C305.778 152.855 296.639 151.276 292.983 151.883C290.547 150.061 287.503 146.415 269.227 149.454C250.951 152.49 250.951 173.146 263.134 173.754C275.319 174.362 280.19 168.286 282.018 168.893C283.845 169.502 285.064 170.717 289.328 176.184C293.593 181.652 292.375 181.652 292.983 176.184C293.593 170.717 296.03 170.717 300.294 173.754C304.559 176.792 299.076 182.259 299.685 184.689Z" fill="#032068"/>
  <path d="M212.999 221.208L221.462 258.339C221.545 258.709 221.832 259 222.201 259.092L236.578 262.667C237.304 262.847 237.967 262.205 237.808 261.475L230.241 227.036C230.17 226.715 229.945 226.447 229.639 226.322L214.366 220.056C213.61 219.745 212.817 220.413 212.999 221.208Z" fill="white"/>
  <path fill-rule="evenodd" clip-rule="evenodd" d="M214.749 219.125C213.239 218.505 211.654 219.842 212.016 221.431L220.479 258.562C220.646 259.301 221.219 259.884 221.957 260.068L236.334 263.643C237.786 264.003 239.113 262.718 238.792 261.261L231.225 226.821C231.084 226.176 230.635 225.643 230.023 225.392L214.749 219.125ZM213.982 220.985L229.256 227.251L236.822 261.692L222.445 258.116L213.982 220.985Z" fill="#032068"/>
  <path d="M233.529 264.467V269.721C227.521 272.698 215.721 277.075 216.568 270.772C217.629 262.891 214.448 261.84 212.859 252.91C211.586 245.766 214.802 242.929 216.568 242.403C216.922 243.804 217.734 246.921 218.159 248.182C218.688 249.758 223.988 247.132 228.229 246.606C232.468 246.081 235.118 253.961 235.649 258.163C236.178 262.366 233.529 262.891 233.529 264.467Z" fill="#EFCB96"/>
  <path d="M250.339 322.596C250.339 330.372 245.059 335.353 242.42 337.175L243.029 340.821C245.871 341.428 252.214 334.138 252.776 326.847C253.746 314.273 243.133 282.61 237.626 268.131C237.598 268.058 237.572 267.987 237.546 267.919C237.572 267.99 237.6 268.061 237.626 268.131C240.76 276.46 250.339 312.96 250.339 322.596Z" fill="#032068"/>
  <path d="M224.001 269.741C214.252 269.741 215.614 267.919 213.178 263.666C213.178 278.45 207.695 309.837 210.131 321.988C213.176 337.175 224.001 342.643 230.701 341.428C237.401 340.213 248.37 337.175 250.198 323.81C251.659 313.118 241.466 279.259 236.185 263.666C235.577 265.084 232.415 269.741 224.001 269.741Z" fill="#ED3237"/>
  <path d="M212.425 329.885C227.534 321.624 243.088 326.037 248.977 329.278C247.354 333.328 241.424 341.55 230.701 342.035C219.979 342.522 214.05 334.138 212.425 329.885Z" fill="#032068"/>
</svg>